<?xml version="1.0" encoding="UTF-8"?><svg id="Layer_1" xmlns="http://www.w3.org/2000/svg" viewBox="0 0 1080 1080"><defs><style>.cls-1{fill:#0098ff;}.cls-2{fill:#333;}</style></defs><path class="cls-1" d="m128.41,499.37h22.95v108.84h-22.95v-21.64c-11.17,16.45-25.02,24.67-41.56,24.67-14.34,0-26.58-5.63-36.74-16.89-10.16-11.26-15.24-24.93-15.24-41.03,0-15.21,5.12-28.52,15.37-39.91,10.24-11.39,22.27-17.08,36.08-17.08,8.53,0,16.62,2.33,24.27,6.99,7.65,4.66,13.59,10.73,17.81,18.2v-22.16Zm3.17,54.75c0-9.94-3.57-18.45-10.71-25.53-7.13-7.08-15.68-10.62-25.64-10.62s-18.15,3.52-25.38,10.55c-7.22,7.04-10.84,15.3-10.84,24.8,0,10.29,3.52,19.04,10.57,26.25,7.05,7.21,15.6,10.82,25.64,10.82s18.5-3.58,25.64-10.75c7.14-7.17,10.71-15.68,10.71-25.53Z"/><path class="cls-1" d="m181.57,463.62c0-4.75,1.76-8.86,5.28-12.34,3.52-3.47,7.69-5.21,12.53-5.21s8.86,1.74,12.34,5.21c3.47,3.48,5.21,7.59,5.21,12.34s-1.74,8.97-5.21,12.4c-3.48,3.43-7.59,5.15-12.34,5.15s-9.02-1.72-12.53-5.15c-3.52-3.43-5.28-7.56-5.28-12.4Zm6.46,35.75h22.69v108.84h-22.69v-108.84Z"/><path class="cls-2" d="m346.83,412.3h14.94l-109.41,255.4h-15.66l110.12-255.4Z"/><path class="cls-1" d="m471.4,436.97h22.69v171.23h-22.43v-22.69c-10.83,17.15-25.01,25.73-42.54,25.73-14.18,0-26.33-5.67-36.46-17.02-10.13-11.35-15.19-24.98-15.19-40.9s5.15-28.96,15.46-40.17c10.3-11.21,22.59-16.82,36.86-16.82,8.54,0,16.51,2.37,23.91,7.12,7.4,4.75,13.3,10.95,17.7,18.6v-85.09Zm2.64,116.62c0-9.76-3.57-18.23-10.71-25.4-7.14-7.17-15.64-10.75-25.51-10.75s-18.88,3.5-25.97,10.49c-7.09,6.99-10.64,15.55-10.64,25.66s3.61,18.14,10.84,25.4c7.22,7.26,15.64,10.88,25.24,10.88,10.22,0,18.9-3.52,26.03-10.55,7.14-7.04,10.71-15.61,10.71-25.73Z"/><path class="cls-1" d="m524.96,463.62c0-4.75,1.76-8.86,5.28-12.34,3.52-3.47,7.69-5.21,12.53-5.21s8.86,1.74,12.34,5.21c3.47,3.48,5.21,7.59,5.21,12.34s-1.74,8.97-5.21,12.4c-3.48,3.43-7.59,5.15-12.34,5.15s-9.02-1.72-12.53-5.15c-3.52-3.43-5.28-7.56-5.28-12.4Zm6.46,35.75h22.69v108.84h-22.69v-108.84Z"/><path class="cls-1" d="m679.05,499.37h22.43v104.48c0,15.39-5.3,28.47-15.9,39.25-10.6,10.77-23.42,16.16-38.46,16.16-11.43,0-21.94-3.1-31.53-9.3-9.59-6.2-16.62-15.63-21.11-28.3h23.75c7.12,11.78,17.02,17.68,29.68,17.68,8.62,0,15.96-3.1,22.03-9.3,6.07-6.2,9.1-13.65,9.1-22.36v-20.58c-11.08,16.1-25.07,24.14-41.95,24.14-13.9,0-26.01-5.74-36.34-17.22-10.34-11.48-15.5-25.04-15.5-40.7s5.03-29.06,15.11-40.24c10.07-11.17,22.05-16.75,35.95-16.75,17.94,0,32.19,8.66,42.74,25.99v-22.95Zm3.17,54.22c0-10.2-3.54-18.73-10.62-25.59-7.08-6.86-15.85-10.29-26.32-10.29-9.59,0-18.03,3.56-25.33,10.69-7.3,7.12-10.95,15.35-10.95,24.67,0,10.11,3.6,18.82,10.82,26.12,7.21,7.3,15.78,10.95,25.72,10.95s18.75-3.56,25.92-10.69c7.17-7.12,10.75-15.74,10.75-25.86Z"/><path class="cls-1" d="m733.26,463.62c0-4.75,1.76-8.86,5.28-12.34,3.52-3.47,7.69-5.21,12.53-5.21s8.86,1.74,12.34,5.21c3.47,3.48,5.21,7.59,5.21,12.34s-1.74,8.97-5.21,12.4c-3.48,3.43-7.59,5.15-12.34,5.15s-9.02-1.72-12.53-5.15c-3.52-3.43-5.28-7.56-5.28-12.4Zm6.46,35.75h22.69v108.84h-22.69v-108.84Z"/><path class="cls-1" d="m804.11,467.71h22.95v31.66h22.69v20.98h-22.69v87.86h-22.95v-87.86h-18.07v-21.24h18.07v-31.4Z"/><path class="cls-1" d="m961.62,499.37h22.95v108.84h-22.95v-21.64c-11.17,16.45-25.02,24.67-41.56,24.67-14.34,0-26.58-5.63-36.74-16.89-10.16-11.26-15.24-24.93-15.24-41.03,0-15.21,5.12-28.52,15.37-39.91,10.24-11.39,22.27-17.08,36.08-17.08,8.53,0,16.62,2.33,24.27,6.99,7.65,4.66,13.59,10.73,17.81,18.2v-22.16Zm3.17,54.75c0-9.94-3.57-18.45-10.71-25.53-7.13-7.08-15.68-10.62-25.64-10.62s-18.15,3.52-25.38,10.55c-7.22,7.04-10.84,15.3-10.84,24.8,0,10.29,3.52,19.04,10.57,26.25,7.05,7.21,15.6,10.82,25.64,10.82s18.5-3.58,25.64-10.75c7.14-7.17,10.71-15.68,10.71-25.53Z"/><path class="cls-1" d="m1022.17,436.97h22.96v171.23h-22.96v-171.23Z"/></svg>